# xmcd
#
# Track frame offsets: 
#        150
#        15852
#        39199
#        59431
#        80997
#        110296
#        130663
#        157675
#
# Disc length: 2369 seconds
#
# Revision: 0
# Processed by: cddbd v1.5.2PL0 Copyright (c) Steve Scherf et al.
# Submitted via: ExactAudioCopyFreeDBPlugin 1.0
#
DISCID=51093f08
DTITLE=Virgis Stakenas - Patinka-nepatinka CD-4
DYEAR=1988
DGENRE=Country
TTITLE0=Manekene
TTITLE1=Patinka-nepatinka
TTITLE2=Lopsine
TTITLE3=Ugninis lietus
TTITLE4=Ledu pardaveja
TTITLE5=Liudnos meiles bliuzas
TTITLE6=Lietus
TTITLE7=Daina apie vaikus (signalinis variantas)
EXTD=
EXTT0=
EXTT1=
EXTT2=
EXTT3=
EXTT4=
EXTT5=
EXTT6=
EXTT7=
PLAYORDER=
